<svg data-v-36b2be16="" width="32" height="32" viewBox="0 0 32 33" xmlns="http://www.w3.org/2000/svg" fill="#fff"><path data-v-36b2be16="" fill-rule="evenodd" clip-rule="evenodd" d="M16.0009 7.57422C13.6834 7.57422 13.3925 7.5845 12.4823 7.62651C11.5739 7.66871 10.9538 7.81459 10.4112 8.02864C9.84993 8.24972 9.37384 8.54545 8.89952 9.02674C8.42485 9.50785 8.13329 9.99077 7.91462 10.5599C7.70307 11.1104 7.55906 11.7396 7.51818 12.6607C7.47746 13.5839 7.4668 13.8791 7.4668 16.2299C7.4668 18.5806 7.47711 18.8747 7.51835 19.798C7.56013 20.7194 7.70395 21.3484 7.9148 21.8988C8.13294 22.4681 8.4245 22.951 8.89899 23.4321C9.37313 23.9135 9.84922 24.21 10.4101 24.4311C10.9531 24.6451 11.5733 24.791 12.4816 24.8332C13.3918 24.8752 13.6825 24.8855 15.9999 24.8855C18.3176 24.8855 18.6075 24.8752 19.5178 24.8332C20.4262 24.791 21.047 24.6451 21.59 24.4311C22.151 24.21 22.6264 23.9135 23.1006 23.4321C23.5752 22.951 23.8668 22.4681 24.0855 21.8989C24.2952 21.3484 24.4392 20.7193 24.4819 19.7981C24.5228 18.8749 24.5335 18.5806 24.5335 16.2299C24.5335 13.8791 24.5228 13.5841 24.4819 12.6609C24.4392 11.7394 24.2952 11.1104 24.0855 10.5601C23.8668 9.99076 23.5752 9.50785 23.1006 9.02674C22.6259 8.54527 22.1512 8.24954 21.5894 8.02864C21.0454 7.81459 20.425 7.66871 19.5165 7.62651C18.6063 7.5845 18.3165 7.57422 15.9983 7.57422H16.0009ZM15.2354 9.13404C15.4626 9.13368 15.7161 9.13404 16.0009 9.13404C18.2794 9.13404 18.5494 9.14233 19.4491 9.18381C20.2812 9.2224 20.7327 9.36341 21.0335 9.48189C21.4317 9.63877 21.7157 9.82631 22.0141 10.1293C22.3128 10.4322 22.4977 10.7207 22.6527 11.1247C22.7695 11.4294 22.9087 11.8874 22.9466 12.7314C22.9875 13.6438 22.9964 13.9179 22.9964 16.2279C22.9964 18.5378 22.9875 18.8119 22.9466 19.7244C22.9086 20.5683 22.7695 21.0263 22.6527 21.3311C22.4981 21.735 22.3128 22.0226 22.0141 22.3254C21.7155 22.6284 21.4319 22.8159 21.0335 22.9728C20.7331 23.0918 20.2812 23.2325 19.4491 23.271C18.5496 23.3125 18.2794 23.3215 16.0009 23.3215C13.7223 23.3215 13.4523 23.3125 12.5527 23.271C11.7207 23.2321 11.2691 23.0911 10.9682 22.9726C10.5699 22.8157 10.2855 22.6282 9.98682 22.3252C9.68815 22.0223 9.50326 21.7345 9.34824 21.3304C9.23144 21.0256 9.09224 20.5676 9.05437 19.7237C9.01348 18.8112 9.0053 18.5371 9.0053 16.2257C9.0053 13.9143 9.01348 13.6416 9.05437 12.7292C9.09241 11.8853 9.23144 11.4272 9.34824 11.1221C9.50291 10.7182 9.68815 10.4297 9.98682 10.1267C10.2855 9.82378 10.5699 9.63624 10.9682 9.479C11.269 9.35999 11.7207 9.21933 12.5527 9.18056C13.3399 9.1445 13.645 9.13368 15.2354 9.13187V9.13404ZM20.556 10.5712C19.9907 10.5712 19.532 11.0359 19.532 11.6096C19.532 12.183 19.9907 12.6482 20.556 12.6482C21.1213 12.6482 21.58 12.183 21.58 11.6096C21.58 11.0361 21.1213 10.5709 20.556 10.5709V10.5712ZM16.0009 11.7848C13.5808 11.7848 11.6187 13.7751 11.6187 16.2299C11.6187 18.6846 13.5808 20.674 16.0009 20.674C18.421 20.674 20.3825 18.6846 20.3825 16.2299C20.3825 13.7751 18.4209 11.7848 16.0008 11.7848H16.0009ZM16.0009 13.3446C17.5718 13.3446 18.8454 14.6363 18.8454 16.2299C18.8454 17.8232 17.5718 19.1151 16.0009 19.1151C14.4299 19.1151 13.1565 17.8232 13.1565 16.2299C13.1565 14.6363 14.4299 13.3446 16.0009 13.3446Z"></path></svg>