<svg xmlns="http://www.w3.org/2000/svg" width="256" height="256" xml:space="preserve"><g><g style="stroke:none;stroke-width:0;stroke-dasharray:none;stroke-linecap:butt;stroke-linejoin:miter;stroke-miterlimit:10;fill:none;fill-rule:nonzero;opacity:1" transform="translate(1.964 1.964) scale(2.8008)">

<path d="M45 69.563a7.089 7.089 0 0 1-3.545-.946L26.32 59.879a7.11 7.11 0 0 1-3.545-6.141V36.261a7.11 7.11 0 0 1 3.545-6.14l15.135-8.739a7.112 7.112 0 0 1 7.09 0l15.136 8.739a7.11 7.11 0 0 1 3.545 6.14v17.477a7.112 7.112 0 0 1-3.545 6.141l-15.136 8.738a7.089 7.089 0 0 1-3.545.946zm0-47.127c-.88 0-1.76.227-2.545.68L27.32 31.854a5.102 5.102 0 0 0-2.545 4.407v17.477c0 1.813.975 3.502 2.545 4.408l15.135 8.738a5.106 5.106 0 0 0 5.09 0l15.136-8.738a5.106 5.106 0 0 0 2.545-4.408V36.261a5.105 5.105 0 0 0-2.545-4.407l-15.136-8.739A5.09 5.09 0 0 0 45 22.436z" style="stroke:none;stroke-width:1;stroke-dasharray:none;stroke-linecap:butt;stroke-linejoin:miter;stroke-miterlimit:10;fill:#e8ec34;fill-rule:nonzero;opacity:1"/>

<path d="M37.691 52.733c-.339 0-.664-.174-.85-.473l-6.509-10.487v9.959a1 1 0 1 1-2 0V38.267a1 1 0 0 1 1.85-.527l6.509 10.486v-9.959a1 1 0 0 1 2 0v13.467a1.001 1.001 0 0 1-1 .999zM42.914 52.733a1 1 0 0 1-1-1V38.267a1 1 0 0 1 1-1h5.97a1 1 0 1 1 0 2h-4.97v12.467a1 1 0 0 1-1 .999z" style="stroke:none;stroke-width:1;stroke-dasharray:none;stroke-linecap:butt;stroke-linejoin:miter;stroke-miterlimit:10;fill:#e8ec34;fill-rule:nonzero;opacity:1"/>

<path d="M47.66 46h-4.747a1 1 0 0 1 0-2h4.747a1 1 0 1 1 0 2zM60.667 39.267h-7.653a1 1 0 1 1 0-2h7.653a1 1 0 1 1 0 2z" style="stroke:none;stroke-width:1;stroke-dasharray:none;stroke-linecap:butt;stroke-linejoin:miter;stroke-miterlimit:10;fill:#e8ec34;fill-rule:nonzero;opacity:1"/>

<path d="M56.841 52.733a1 1 0 0 1-1-1V38.267a1 1 0 1 1 2 0v13.467a.999.999 0 0 1-1 .999zM45 10.816c-2.982 0-5.408-2.426-5.408-5.408S42.018 0 45 0s5.408 2.426 5.408 5.408-2.426 5.408-5.408 5.408zM45 2a3.412 3.412 0 0 0-3.408 3.408A3.412 3.412 0 0 0 45 8.816a3.412 3.412 0 0 0 3.408-3.408A3.412 3.412 0 0 0 45 2zM45 90c-2.982 0-5.408-2.426-5.408-5.408s2.426-5.408 5.408-5.408 5.408 2.426 5.408 5.408S47.982 90 45 90zm0-8.816c-1.879 0-3.408 1.529-3.408 3.408S43.121 88 45 88s3.408-1.529 3.408-3.408-1.529-3.408-3.408-3.408zM8.236 57.007c-2.982 0-5.408-2.426-5.408-5.408s2.426-5.408 5.408-5.408 5.408 2.426 5.408 5.408-2.426 5.408-5.408 5.408zm0-8.817c-1.879 0-3.408 1.529-3.408 3.408s1.529 3.408 3.408 3.408 3.408-1.529 3.408-3.408-1.529-3.408-3.408-3.408zM81.764 57.007c-2.981 0-5.407-2.426-5.407-5.408s2.426-5.408 5.407-5.408c2.982 0 5.408 2.426 5.408 5.408s-2.426 5.408-5.408 5.408zm0-8.817c-1.879 0-3.407 1.529-3.407 3.408s1.528 3.408 3.407 3.408 3.408-1.529 3.408-3.408-1.529-3.408-3.408-3.408zM8.236 43.809c-2.982 0-5.408-2.426-5.408-5.408s2.426-5.408 5.408-5.408 5.408 2.426 5.408 5.408-2.426 5.408-5.408 5.408zm0-8.816a3.412 3.412 0 0 0-3.408 3.408 3.412 3.412 0 0 0 3.408 3.408 3.412 3.412 0 0 0 3.408-3.408 3.412 3.412 0 0 0-3.408-3.408zM81.764 43.809c-2.981 0-5.407-2.426-5.407-5.408s2.426-5.408 5.407-5.408c2.982 0 5.408 2.426 5.408 5.408s-2.426 5.408-5.408 5.408zm0-8.816a3.411 3.411 0 0 0-3.407 3.408c0 1.879 1.528 3.408 3.407 3.408s3.408-1.529 3.408-3.408a3.412 3.412 0 0 0-3.408-3.408z" style="stroke:none;stroke-width:1;stroke-dasharray:none;stroke-linecap:butt;stroke-linejoin:miter;stroke-miterlimit:10;fill:#e8ec34;fill-rule:nonzero;opacity:1"/>

<rect x="12.64" y="37.4" rx="0" ry="0" width="11.13" height="2" style="stroke:none;stroke-width:1;stroke-dasharray:none;stroke-linecap:butt;stroke-linejoin:miter;stroke-miterlimit:10;fill:#e8ec34;fill-rule:nonzero;opacity:1"/>

<rect x="12.64" y="50.6" rx="0" ry="0" width="11.13" height="2" style="stroke:none;stroke-width:1;stroke-dasharray:none;stroke-linecap:butt;stroke-linejoin:miter;stroke-miterlimit:10;fill:#e8ec34;fill-rule:nonzero;opacity:1"/>

<rect x="66.23" y="37.4" rx="0" ry="0" width="11.13" height="2" style="stroke:none;stroke-width:1;stroke-dasharray:none;stroke-linecap:butt;stroke-linejoin:miter;stroke-miterlimit:10;fill:#e8ec34;fill-rule:nonzero;opacity:1"/>

<rect x="66.23" y="50.6" rx="0" ry="0" width="11.13" height="2" style="stroke:none;stroke-width:1;stroke-dasharray:none;stroke-linecap:butt;stroke-linejoin:miter;stroke-miterlimit:10;fill:#e8ec34;fill-rule:nonzero;opacity:1"/>

<rect x="44" y="9.82" rx="0" ry="0" width="2" height="11.62" style="stroke:none;stroke-width:1;stroke-dasharray:none;stroke-linecap:butt;stroke-linejoin:miter;stroke-miterlimit:10;fill:#e8ec34;fill-rule:nonzero;opacity:1"/>

<rect x="44" y="68.57" rx="0" ry="0" width="2" height="11.62" style="stroke:none;stroke-width:1;stroke-dasharray:none;stroke-linecap:butt;stroke-linejoin:miter;stroke-miterlimit:10;fill:#e8ec34;fill-rule:nonzero;opacity:1"/>

<path d="M24.266 18.419c-2.982 0-5.408-2.426-5.408-5.408s2.426-5.408 5.408-5.408 5.408 2.426 5.408 5.408-2.426 5.408-5.408 5.408zm0-8.815a3.412 3.412 0 0 0-3.408 3.408 3.412 3.412 0 0 0 3.408 3.408 3.412 3.412 0 0 0 3.408-3.408 3.411 3.411 0 0 0-3.408-3.408zM24.266 82.396c-2.982 0-5.408-2.426-5.408-5.408s2.426-5.408 5.408-5.408 5.408 2.426 5.408 5.408-2.426 5.408-5.408 5.408zm0-8.816c-1.879 0-3.408 1.529-3.408 3.408s1.529 3.408 3.408 3.408 3.408-1.529 3.408-3.408-1.529-3.408-3.408-3.408z" style="stroke:none;stroke-width:1;stroke-dasharray:none;stroke-linecap:butt;stroke-linejoin:miter;stroke-miterlimit:10;fill:#e8ec34;fill-rule:nonzero;opacity:1"/>

<path d="M34.321 27.657a1 1 0 0 1-1-1V20.16l-5.969-3.796a.999.999 0 1 1 1.073-1.687l6.432 4.091a1 1 0 0 1 .463.844v7.047a.998.998 0 0 1-.999.998zM27.89 75.48a1 1 0 0 1-.538-1.844l5.969-3.796v-6.498a1 1 0 1 1 2 0v7.047c0 .342-.175.66-.463.844l-6.432 4.091a.997.997 0 0 1-.536.156zM65.734 18.419c-2.982 0-5.408-2.426-5.408-5.408s2.426-5.408 5.408-5.408c2.981 0 5.407 2.426 5.407 5.408s-2.425 5.408-5.407 5.408zm0-8.815a3.412 3.412 0 0 0-3.408 3.408c0 1.879 1.529 3.408 3.408 3.408s3.407-1.529 3.407-3.408a3.41 3.41 0 0 0-3.407-3.408zM65.734 82.396c-2.982 0-5.408-2.426-5.408-5.408s2.426-5.408 5.408-5.408c2.981 0 5.407 2.426 5.407 5.408s-2.425 5.408-5.407 5.408zm0-8.816c-1.879 0-3.408 1.529-3.408 3.408s1.529 3.408 3.408 3.408 3.407-1.529 3.407-3.408-1.528-3.408-3.407-3.408z" style="stroke:none;stroke-width:1;stroke-dasharray:none;stroke-linecap:butt;stroke-linejoin:miter;stroke-miterlimit:10;fill:#e8ec34;fill-rule:nonzero;opacity:1"/>

<path d="M55.68 27.657a1 1 0 0 1-1-1V19.61c0-.342.175-.66.463-.844l6.432-4.091a1 1 0 0 1 1.074 1.687L56.68 20.16v6.498a1 1 0 0 1-1 .999zM62.11 75.48c-.184 0-.369-.051-.536-.156l-6.432-4.091a1.002 1.002 0 0 1-.463-.844v-7.047a1 1 0 1 1 2 0v6.498l5.969 3.796a1 1 0 0 1-.538 1.844z" style="stroke:none;stroke-width:1;stroke-dasharray:none;stroke-linecap:butt;stroke-linejoin:miter;stroke-miterlimit:10;fill:#e8ec34;fill-rule:nonzero;opacity:1"/>
</g></g></svg>