<svg xmlns="http://www.w3.org/2000/svg" width="256" height="256" xml:space="preserve"><g><g style="stroke:none;stroke-width:0;stroke-dasharray:none;stroke-linecap:butt;stroke-linejoin:miter;stroke-miterlimit:10;fill:none;fill-rule:nonzero;opacity:1" transform="translate(1.964 1.964) scale(2.8008)"><path d="M82.743 78.61H7.257a1 1 0 0 1-1-1V35.126a5.667 5.667 0 0 1 5.661-5.661h16.127a1 1 0 0 1 0 2H11.918a3.665 3.665 0 0 0-3.661 3.661V76.61h73.486V35.126a3.665 3.665 0 0 0-3.661-3.661H61.955a1 1 0 1 1 0-2h16.127a5.668 5.668 0 0 1 5.661 5.661V77.61a1 1 0 0 1-1 1z" style="stroke:none;stroke-width:1;stroke-dasharray:none;stroke-linecap:butt;stroke-linejoin:miter;stroke-miterlimit:10;fill:#fcf9f9;fill-rule:nonzero;opacity:1"/><path d="M80.73 90H9.269c-4.582 0-8.31-3.728-8.31-8.31v-4.08a1 1 0 0 1 1-1h86.082a1 1 0 0 1 1 1v4.08c0 4.582-3.728 8.31-8.311 8.31zM2.959 78.61v3.08A6.318 6.318 0 0 0 9.269 88H80.73a6.318 6.318 0 0 0 6.311-6.31v-3.08H2.959z" style="stroke:none;stroke-width:1;stroke-dasharray:none;stroke-linecap:butt;stroke-linejoin:miter;stroke-miterlimit:10;fill:#fcf9f9;fill-rule:nonzero;opacity:1"/><path d="M51.092 84.306H38.908a1 1 0 1 1 0-2h12.184a1 1 0 1 1 0 2zM45 55.971a5.862 5.862 0 0 1-2.932-.783l-12.091-6.98a5.882 5.882 0 0 1-2.932-5.079V29.167a5.884 5.884 0 0 1 2.932-5.079l12.091-6.981a5.885 5.885 0 0 1 5.865 0l12.09 6.98a5.883 5.883 0 0 1 2.933 5.079v13.961a5.883 5.883 0 0 1-2.933 5.079l-12.09 6.98a5.85 5.85 0 0 1-2.933.785zm0-37.647c-.668 0-1.336.172-1.932.516l-12.091 6.981a3.875 3.875 0 0 0-1.932 3.347v13.961c0 1.376.74 2.658 1.932 3.346l12.091 6.98a3.872 3.872 0 0 0 3.865 0l12.09-6.98a3.876 3.876 0 0 0 1.933-3.346V29.167c0-1.376-.74-2.658-1.933-3.347l-12.09-6.98A3.868 3.868 0 0 0 45 18.324z" style="stroke:none;stroke-width:1;stroke-dasharray:none;stroke-linecap:butt;stroke-linejoin:miter;stroke-miterlimit:10;fill:#e8ec34;fill-rule:nonzero;opacity:1"/><path d="M39.162 42.526a1 1 0 0 1-.85-.473l-4.828-7.777v7.25a1 1 0 0 1-2 0V30.769a1 1 0 0 1 1.85-.527l4.828 7.777v-7.25a1 1 0 0 1 2 0v10.757a1 1 0 0 1-1 1zM43.333 42.526a1 1 0 0 1-1-1V30.769a1 1 0 0 1 1-1h4.769a1 1 0 1 1 0 2h-3.769v9.757a1 1 0 0 1-1 1z" style="stroke:none;stroke-width:1;stroke-dasharray:none;stroke-linecap:butt;stroke-linejoin:miter;stroke-miterlimit:10;fill:#e8ec34;fill-rule:nonzero;opacity:1"/><path d="M47.125 37.148h-3.792a1 1 0 0 1 0-2h3.792a1 1 0 1 1 0 2zM57.515 31.769h-6.113a1 1 0 1 1 0-2h6.113a1 1 0 1 1 0 2z" style="stroke:none;stroke-width:1;stroke-dasharray:none;stroke-linecap:butt;stroke-linejoin:miter;stroke-miterlimit:10;fill:#e8ec34;fill-rule:nonzero;opacity:1"/><path d="M54.458 42.526a1 1 0 0 1-1-1V30.769a1 1 0 1 1 2 0v10.757a1 1 0 0 1-1 1zM45 9.042a4.526 4.526 0 0 1-4.521-4.521A4.526 4.526 0 0 1 45 0a4.526 4.526 0 0 1 4.521 4.521A4.526 4.526 0 0 1 45 9.042zM45 2c-1.39 0-2.521 1.131-2.521 2.521S43.61 7.042 45 7.042c1.391 0 2.521-1.131 2.521-2.521S46.391 2 45 2zM45 72.296c-2.493 0-4.521-2.028-4.521-4.521s2.028-4.521 4.521-4.521 4.521 2.028 4.521 4.521-2.028 4.521-4.521 4.521zm0-7.043c-1.39 0-2.521 1.131-2.521 2.521S43.61 70.296 45 70.296c1.391 0 2.521-1.131 2.521-2.521s-1.13-2.522-2.521-2.522z" style="stroke:none;stroke-width:1;stroke-dasharray:none;stroke-linecap:butt;stroke-linejoin:miter;stroke-miterlimit:10;fill:#e8ec34;fill-rule:nonzero;opacity:1"/><rect x="44" y="8.04" rx="0" ry="0" width="2" height="9.28" style="stroke:none;stroke-width:1;stroke-dasharray:none;stroke-linecap:butt;stroke-linejoin:miter;stroke-miterlimit:10;fill:#e8ec34;fill-rule:nonzero;opacity:1"/><rect x="44" y="54.97" rx="0" ry="0" width="2" height="9.28" style="stroke:none;stroke-width:1;stroke-dasharray:none;stroke-linecap:butt;stroke-linejoin:miter;stroke-miterlimit:10;fill:#e8ec34;fill-rule:nonzero;opacity:1"/><path d="M28.438 15.116a4.526 4.526 0 0 1-4.521-4.521c0-2.493 2.028-4.521 4.521-4.521s4.521 2.028 4.521 4.521a4.527 4.527 0 0 1-4.521 4.521zm0-7.042c-1.39 0-2.521 1.131-2.521 2.521s1.131 2.521 2.521 2.521 2.521-1.131 2.521-2.521-1.131-2.521-2.521-2.521zM28.438 66.222a4.526 4.526 0 0 1-4.521-4.521c0-2.492 2.028-4.521 4.521-4.521s4.521 2.028 4.521 4.521a4.528 4.528 0 0 1-4.521 4.521zm0-7.042a2.524 2.524 0 0 0-2.521 2.521c0 1.391 1.131 2.521 2.521 2.521s2.521-1.131 2.521-2.521a2.525 2.525 0 0 0-2.521-2.521z" style="stroke:none;stroke-width:1;stroke-dasharray:none;stroke-linecap:butt;stroke-linejoin:miter;stroke-miterlimit:10;fill:#e8ec34;fill-rule:nonzero;opacity:1"/><path d="M36.469 22.495a1 1 0 0 1-1-1v-5.08l-4.675-2.973a.999.999 0 1 1 1.073-1.687l5.138 3.268a1 1 0 0 1 .463.844v5.629a.999.999 0 0 1-.999.999zM31.332 60.697a1 1 0 0 1-.538-1.844l4.675-2.973V50.8a1 1 0 1 1 2 0v5.629c0 .342-.175.66-.463.844l-5.138 3.268a1.003 1.003 0 0 1-.536.156zM61.563 15.116a4.526 4.526 0 0 1-4.521-4.521c0-2.493 2.028-4.521 4.521-4.521s4.521 2.028 4.521 4.521a4.526 4.526 0 0 1-4.521 4.521zm0-7.042c-1.391 0-2.521 1.131-2.521 2.521s1.131 2.521 2.521 2.521 2.521-1.131 2.521-2.521-1.131-2.521-2.521-2.521zM61.563 66.222a4.526 4.526 0 0 1-4.521-4.521c0-2.492 2.028-4.521 4.521-4.521s4.521 2.028 4.521 4.521a4.527 4.527 0 0 1-4.521 4.521zm0-7.042a2.523 2.523 0 0 0-2.521 2.521c0 1.391 1.131 2.521 2.521 2.521s2.521-1.131 2.521-2.521a2.524 2.524 0 0 0-2.521-2.521z" style="stroke:none;stroke-width:1;stroke-dasharray:none;stroke-linecap:butt;stroke-linejoin:miter;stroke-miterlimit:10;fill:#e8ec34;fill-rule:nonzero;opacity:1"/><path d="M53.531 22.495a1 1 0 0 1-1-1v-5.629c0-.342.175-.66.463-.844l5.138-3.268a1 1 0 0 1 1.074 1.687l-4.675 2.973v5.08a1 1 0 0 1-1 1.001zM58.668 60.697c-.184 0-.369-.051-.536-.156l-5.138-3.268a1.002 1.002 0 0 1-.463-.844V50.8a1 1 0 1 1 2 0v5.08l4.675 2.973a1 1 0 0 1-.538 1.844z" style="stroke:none;stroke-width:1;stroke-dasharray:none;stroke-linecap:butt;stroke-linejoin:miter;stroke-miterlimit:10;fill:#e8ec34;fill-rule:nonzero;opacity:1"/></g></g></svg>