<svg data-v-36b2be16="" width="32" height="32" viewBox="0 0 32 33" xmlns="http://www.w3.org/2000/svg" class="socials-telegram" ><path fill="#333" data-v-36b2be16="" fill-rule="evenodd" clip-rule="evenodd" d="M13.0667 23.6684C12.5483 23.6684 12.6364 23.4699 12.4576 22.9693L10.9333 17.8808L22.6667 10.8203"></path><path fill="#333" data-v-36b2be16="" fill-rule="evenodd" clip-rule="evenodd" d="M13.0667 23.6678C13.4667 23.6678 13.6434 23.4822 13.8667 23.2621L16 21.1579L13.3389 19.5303"></path><path fill="#fff" data-v-36b2be16="" fill-rule="evenodd" clip-rule="evenodd" d="M13.3391 19.5293L19.7871 24.3614C20.5229 24.7732 21.0539 24.56 21.2372 23.6685L23.8618 11.1229C24.1306 10.0302 23.4512 9.53451 22.7473 9.85866L7.33532 15.8866C6.28331 16.3146 6.28945 16.9099 7.14356 17.1752L11.0986 18.4273L20.255 12.5679C20.6872 12.302 21.0839 12.445 20.7583 12.7381"></path></svg>