<svg data-v-36b2be16="" width="32" height="32" viewBox="0 0 32 33" xmlns="http://www.w3.org/2000/svg" fill="#fff"><path data-v-36b2be16="" fill-rule="evenodd" clip-rule="evenodd" d="M16.8371 21.014C16.8371 21.014 17.1451 20.98 17.3029 20.8113C17.4473 20.6567 17.4423 20.365 17.4423 20.365C17.4423 20.365 17.4231 19.0028 18.0583 18.8016C18.6844 18.6038 19.4882 20.1189 20.3413 20.7016C20.9857 21.142 21.4749 21.0456 21.4749 21.0456L23.7545 21.014C23.7545 21.014 24.9465 20.9409 24.3814 20.0076C24.3347 19.9311 24.0517 19.3169 22.6869 18.0553C21.257 16.7347 21.449 16.9483 23.1702 14.6636C24.2186 13.2723 24.6377 12.4229 24.5066 12.0597C24.3822 11.7123 23.611 11.8046 23.611 11.8046L21.045 11.8204C21.045 11.8204 20.8547 11.7946 20.7136 11.8785C20.5759 11.9608 20.4866 12.1528 20.4866 12.1528C20.4866 12.1528 20.0809 13.2291 19.5391 14.145C18.3964 16.0765 17.9398 16.1787 17.7528 16.059C17.3179 15.7789 17.4264 14.9353 17.4264 14.3361C17.4264 12.4636 17.7119 11.6832 16.8713 11.4813C16.5925 11.414 16.3872 11.3699 15.6735 11.3624C14.7578 11.3533 13.9832 11.3658 13.5441 11.5793C13.2519 11.7215 13.0266 12.039 13.1643 12.0572C13.3337 12.0797 13.7177 12.1603 13.9214 12.4362C14.1843 12.7928 14.1751 13.5923 14.1751 13.5923C14.1751 13.5923 14.3262 15.7964 13.8221 16.0698C13.4765 16.2576 13.0024 15.8745 11.9831 14.1217C11.4614 13.2241 11.0674 12.2318 11.0674 12.2318C11.0674 12.2318 10.9915 12.0464 10.8554 11.9467C10.691 11.8262 10.4614 11.7888 10.4614 11.7888L8.02318 11.8046C8.02318 11.8046 7.65673 11.8146 7.52234 11.9733C7.40297 12.1137 7.51316 12.4055 7.51316 12.4055C7.51316 12.4055 9.42219 16.8527 11.5841 19.0942C13.5666 21.1487 15.8171 21.014 15.8171 21.014H16.8371Z"></path></svg>