<svg data-v-36b2be16="" width="32" height="32" viewBox="0 0 32 33" xmlns="http://www.w3.org/2000/svg" class="socials-youtube" ><path fill="#fff" data-v-36b2be16="" fill-rule="evenodd" clip-rule="evenodd" d="M24.3279 12.9623C24.3279 12.9623 24.1612 11.7433 23.6505 11.2065C23.0024 10.5017 22.276 10.4983 21.9431 10.4574C19.5583 10.2783 15.9811 10.2783 15.9811 10.2783H15.9736C15.9736 10.2783 12.3964 10.2783 10.0115 10.4574C9.67816 10.4983 8.95227 10.5017 8.30361 11.2065C7.79288 11.7433 7.62672 12.9623 7.62672 12.9623C7.62672 12.9623 7.4563 14.3941 7.4563 15.8253V17.1676C7.4563 18.5994 7.62672 20.0307 7.62672 20.0307C7.62672 20.0307 7.79288 21.2496 8.30361 21.7864C8.95227 22.4913 9.80384 22.4692 10.183 22.5427C11.5464 22.6787 15.9773 22.7207 15.9773 22.7207C15.9773 22.7207 19.5583 22.7152 21.9431 22.5361C22.276 22.4946 23.0024 22.4913 23.6505 21.7864C24.1612 21.2496 24.3279 20.0307 24.3279 20.0307C24.3279 20.0307 24.4984 18.5994 24.4984 17.1676V15.8253C24.4984 14.3941 24.3279 12.9623 24.3279 12.9623Z"></path><path data-v-36b2be16="" fill-rule="evenodd" clip-rule="evenodd" d="M14.2173 18.7947L14.2168 13.8242L18.8214 16.318L14.2173 18.7947Z"></path></svg>